<mxfile host="app.diagrams.net" modified="2024-04-30T01:36:41.062Z" agent="Mozilla/5.0 (Windows NT 10.0; Win64; x64) AppleWebKit/537.36 (KHTML, like Gecko) Chrome/124.0.0.0 Safari/537.36" etag="qCaNvetvm2y6r8SLvkdS" version="24.3.1" type="github">
  <diagram id="C5RBs43oDa-KdzZeNtuy" name="Page-1">
    <mxGraphModel dx="2327" dy="746" grid="1" gridSize="10" guides="1" tooltips="1" connect="1" arrows="1" fold="1" page="1" pageScale="1" pageWidth="827" pageHeight="1169" math="0" shadow="0">
      <root>
        <mxCell id="WIyWlLk6GJQsqaUBKTNV-0" />
        <mxCell id="WIyWlLk6GJQsqaUBKTNV-1" parent="WIyWlLk6GJQsqaUBKTNV-0" />
        <mxCell id="tj2GzW12nFk5Qo7bb9yd-68" value="" style="edgeStyle=orthogonalEdgeStyle;rounded=0;orthogonalLoop=1;jettySize=auto;html=1;" edge="1" parent="WIyWlLk6GJQsqaUBKTNV-1" source="WIyWlLk6GJQsqaUBKTNV-6" target="tj2GzW12nFk5Qo7bb9yd-67">
          <mxGeometry relative="1" as="geometry" />
        </mxCell>
        <mxCell id="tj2GzW12nFk5Qo7bb9yd-69" value="YES" style="edgeLabel;html=1;align=center;verticalAlign=middle;resizable=0;points=[];" vertex="1" connectable="0" parent="tj2GzW12nFk5Qo7bb9yd-68">
          <mxGeometry x="-0.1357" relative="1" as="geometry">
            <mxPoint as="offset" />
          </mxGeometry>
        </mxCell>
        <mxCell id="tj2GzW12nFk5Qo7bb9yd-88" style="edgeStyle=orthogonalEdgeStyle;rounded=0;orthogonalLoop=1;jettySize=auto;html=1;exitX=0;exitY=0.5;exitDx=0;exitDy=0;entryX=1;entryY=0.25;entryDx=0;entryDy=0;" edge="1" parent="WIyWlLk6GJQsqaUBKTNV-1" source="WIyWlLk6GJQsqaUBKTNV-6" target="WIyWlLk6GJQsqaUBKTNV-7">
          <mxGeometry relative="1" as="geometry" />
        </mxCell>
        <mxCell id="tj2GzW12nFk5Qo7bb9yd-89" value="NO" style="edgeLabel;html=1;align=center;verticalAlign=middle;resizable=0;points=[];" vertex="1" connectable="0" parent="tj2GzW12nFk5Qo7bb9yd-88">
          <mxGeometry y="2" relative="1" as="geometry">
            <mxPoint y="1" as="offset" />
          </mxGeometry>
        </mxCell>
        <mxCell id="WIyWlLk6GJQsqaUBKTNV-6" value="월정액 가입을 했는가?&lt;div&gt;Metv&lt;br&gt;&lt;div style=&quot;color: rgb(255, 255, 255); background-color: rgb(0, 0, 0); font-family: Consolas, &amp;quot;Courier New&amp;quot;, monospace; font-size: 14px; line-height: 19px; white-space: pre;&quot;&gt;&lt;span data-sider-select-id=&quot;3ff3122e-546f-4008-aec2-ee8640f8562e&quot; style=&quot;color: #ce9178;&quot;&gt;IF-ME-133&lt;/span&gt;&lt;/div&gt;&lt;/div&gt;" style="rhombus;whiteSpace=wrap;html=1;shadow=0;fontFamily=Helvetica;fontSize=12;align=center;strokeWidth=1;spacing=6;spacingTop=-4;" parent="WIyWlLk6GJQsqaUBKTNV-1" vertex="1">
          <mxGeometry x="275" y="180" width="150" height="140" as="geometry" />
        </mxCell>
        <mxCell id="WIyWlLk6GJQsqaUBKTNV-7" value="&lt;div style=&quot;font-family: Consolas, &amp;quot;Courier New&amp;quot;, monospace; line-height: 19px; white-space: pre;&quot;&gt;&lt;span data-sider-select-id=&quot;3a9e8c57-7919-4c72-9e58-0dd54533216e&quot; style=&quot;background-color: rgb(255, 255, 255);&quot;&gt;&lt;font data-sider-select-id=&quot;409cc1f5-d1f6-48aa-988a-203dff88dd08&quot; style=&quot;font-size: 12px;&quot;&gt;가입상품 해지 안내 월정액 가입상품이 이미 해지 되었습니다.&lt;/font&gt;&lt;/span&gt;&lt;/div&gt;" style="rounded=1;whiteSpace=wrap;html=1;fontSize=12;glass=0;strokeWidth=1;shadow=0;align=center;" parent="WIyWlLk6GJQsqaUBKTNV-1" vertex="1">
          <mxGeometry x="-500" y="240" width="410" height="40" as="geometry" />
        </mxCell>
        <mxCell id="tj2GzW12nFk5Qo7bb9yd-17" style="edgeStyle=orthogonalEdgeStyle;rounded=0;orthogonalLoop=1;jettySize=auto;html=1;exitX=0.5;exitY=1;exitDx=0;exitDy=0;entryX=0.5;entryY=0;entryDx=0;entryDy=0;" edge="1" parent="WIyWlLk6GJQsqaUBKTNV-1" source="tj2GzW12nFk5Qo7bb9yd-15" target="WIyWlLk6GJQsqaUBKTNV-6">
          <mxGeometry relative="1" as="geometry" />
        </mxCell>
        <mxCell id="tj2GzW12nFk5Qo7bb9yd-15" value="start" style="ellipse;whiteSpace=wrap;html=1;aspect=fixed;" vertex="1" parent="WIyWlLk6GJQsqaUBKTNV-1">
          <mxGeometry x="310" y="20" width="80" height="80" as="geometry" />
        </mxCell>
        <mxCell id="tj2GzW12nFk5Qo7bb9yd-83" style="edgeStyle=orthogonalEdgeStyle;rounded=0;orthogonalLoop=1;jettySize=auto;html=1;exitX=0;exitY=0.5;exitDx=0;exitDy=0;entryX=1;entryY=0.5;entryDx=0;entryDy=0;" edge="1" parent="WIyWlLk6GJQsqaUBKTNV-1" source="tj2GzW12nFk5Qo7bb9yd-27" target="tj2GzW12nFk5Qo7bb9yd-36">
          <mxGeometry relative="1" as="geometry" />
        </mxCell>
        <mxCell id="tj2GzW12nFk5Qo7bb9yd-85" value="NO" style="edgeLabel;html=1;align=center;verticalAlign=middle;resizable=0;points=[];" vertex="1" connectable="0" parent="tj2GzW12nFk5Qo7bb9yd-83">
          <mxGeometry x="-0.0808" y="-2" relative="1" as="geometry">
            <mxPoint x="1" as="offset" />
          </mxGeometry>
        </mxCell>
        <mxCell id="tj2GzW12nFk5Qo7bb9yd-84" style="edgeStyle=orthogonalEdgeStyle;rounded=0;orthogonalLoop=1;jettySize=auto;html=1;exitX=0.5;exitY=1;exitDx=0;exitDy=0;entryX=0.5;entryY=0;entryDx=0;entryDy=0;" edge="1" parent="WIyWlLk6GJQsqaUBKTNV-1" source="tj2GzW12nFk5Qo7bb9yd-27" target="tj2GzW12nFk5Qo7bb9yd-33">
          <mxGeometry relative="1" as="geometry" />
        </mxCell>
        <mxCell id="tj2GzW12nFk5Qo7bb9yd-86" value="YES" style="edgeLabel;html=1;align=center;verticalAlign=middle;resizable=0;points=[];" vertex="1" connectable="0" parent="tj2GzW12nFk5Qo7bb9yd-84">
          <mxGeometry x="-0.2" y="4" relative="1" as="geometry">
            <mxPoint as="offset" />
          </mxGeometry>
        </mxCell>
        <mxCell id="tj2GzW12nFk5Qo7bb9yd-27" value="32, 60, 36 인가?" style="rhombus;whiteSpace=wrap;html=1;" vertex="1" parent="WIyWlLk6GJQsqaUBKTNV-1">
          <mxGeometry x="-220" y="485" width="110" height="100" as="geometry" />
        </mxCell>
        <mxCell id="tj2GzW12nFk5Qo7bb9yd-30" value="init()&lt;br&gt;해지팝업" style="rounded=1;whiteSpace=wrap;html=1;fillColor=#d5e8d4;strokeColor=#82b366;" vertex="1" parent="WIyWlLk6GJQsqaUBKTNV-1">
          <mxGeometry x="15" y="720" width="120" height="60" as="geometry" />
        </mxCell>
        <mxCell id="tj2GzW12nFk5Qo7bb9yd-33" value="고객센터(국번없이 106)로 문의해 주세요" style="rounded=1;whiteSpace=wrap;html=1;" vertex="1" parent="WIyWlLk6GJQsqaUBKTNV-1">
          <mxGeometry x="-315" y="650" width="300" height="40" as="geometry" />
        </mxCell>
        <mxCell id="tj2GzW12nFk5Qo7bb9yd-36" value="가입상품 해지 안내 | 월정액 가입상품이 이미 해지 되었습니다." style="rounded=1;whiteSpace=wrap;html=1;" vertex="1" parent="WIyWlLk6GJQsqaUBKTNV-1">
          <mxGeometry x="-750" y="515" width="400" height="40" as="geometry" />
        </mxCell>
        <mxCell id="tj2GzW12nFk5Qo7bb9yd-74" value="" style="edgeStyle=orthogonalEdgeStyle;rounded=0;orthogonalLoop=1;jettySize=auto;html=1;" edge="1" parent="WIyWlLk6GJQsqaUBKTNV-1" source="tj2GzW12nFk5Qo7bb9yd-49" target="tj2GzW12nFk5Qo7bb9yd-52">
          <mxGeometry relative="1" as="geometry" />
        </mxCell>
        <mxCell id="tj2GzW12nFk5Qo7bb9yd-75" value="YES" style="edgeLabel;html=1;align=center;verticalAlign=middle;resizable=0;points=[];" vertex="1" connectable="0" parent="tj2GzW12nFk5Qo7bb9yd-74">
          <mxGeometry x="-0.1333" y="1" relative="1" as="geometry">
            <mxPoint as="offset" />
          </mxGeometry>
        </mxCell>
        <mxCell id="tj2GzW12nFk5Qo7bb9yd-99" style="edgeStyle=orthogonalEdgeStyle;rounded=0;orthogonalLoop=1;jettySize=auto;html=1;exitX=1;exitY=0.5;exitDx=0;exitDy=0;entryX=0;entryY=0.5;entryDx=0;entryDy=0;" edge="1" parent="WIyWlLk6GJQsqaUBKTNV-1" source="tj2GzW12nFk5Qo7bb9yd-49" target="tj2GzW12nFk5Qo7bb9yd-98">
          <mxGeometry relative="1" as="geometry" />
        </mxCell>
        <mxCell id="tj2GzW12nFk5Qo7bb9yd-100" value="NO" style="edgeLabel;html=1;align=center;verticalAlign=middle;resizable=0;points=[];" vertex="1" connectable="0" parent="tj2GzW12nFk5Qo7bb9yd-99">
          <mxGeometry x="-0.0663" y="-1" relative="1" as="geometry">
            <mxPoint as="offset" />
          </mxGeometry>
        </mxCell>
        <mxCell id="tj2GzW12nFk5Qo7bb9yd-49" value="청구서결제이면서 &lt;br&gt;상품의정가가 있는가?&lt;br&gt;&lt;div style=&quot;color: rgb(255, 255, 255); background-color: rgb(0, 0, 0); font-family: Consolas, &amp;quot;Courier New&amp;quot;, monospace; font-size: 14px; line-height: 19px; white-space: pre;&quot;&gt;&lt;span style=&quot;color: #9cdcfe;&quot;&gt;METHOD_PAY_CD&lt;/span&gt;&lt;/div&gt;" style="rhombus;whiteSpace=wrap;html=1;" vertex="1" parent="WIyWlLk6GJQsqaUBKTNV-1">
          <mxGeometry x="270" y="760" width="160" height="130" as="geometry" />
        </mxCell>
        <mxCell id="tj2GzW12nFk5Qo7bb9yd-106" style="edgeStyle=orthogonalEdgeStyle;rounded=0;orthogonalLoop=1;jettySize=auto;html=1;exitX=0;exitY=0.5;exitDx=0;exitDy=0;entryX=1;entryY=0.5;entryDx=0;entryDy=0;" edge="1" parent="WIyWlLk6GJQsqaUBKTNV-1" source="tj2GzW12nFk5Qo7bb9yd-52" target="tj2GzW12nFk5Qo7bb9yd-105">
          <mxGeometry relative="1" as="geometry" />
        </mxCell>
        <mxCell id="tj2GzW12nFk5Qo7bb9yd-107" value="YES" style="edgeLabel;html=1;align=center;verticalAlign=middle;resizable=0;points=[];" vertex="1" connectable="0" parent="tj2GzW12nFk5Qo7bb9yd-106">
          <mxGeometry x="0.0138" y="1" relative="1" as="geometry">
            <mxPoint as="offset" />
          </mxGeometry>
        </mxCell>
        <mxCell id="tj2GzW12nFk5Qo7bb9yd-52" value="채널패키지 상품인가?&lt;br&gt;(60)&lt;br&gt;&lt;div style=&quot;color: rgb(255, 255, 255); background-color: rgb(0, 0, 0); font-family: Consolas, &amp;quot;Courier New&amp;quot;, monospace; font-size: 14px; line-height: 19px; white-space: pre;&quot;&gt;&lt;span style=&quot;color: #9cdcfe;&quot;&gt;PROD_CODE&lt;/span&gt;&lt;/div&gt;" style="rhombus;whiteSpace=wrap;html=1;" vertex="1" parent="WIyWlLk6GJQsqaUBKTNV-1">
          <mxGeometry x="277.5" y="990" width="145" height="120" as="geometry" />
        </mxCell>
        <mxCell id="tj2GzW12nFk5Qo7bb9yd-70" value="" style="edgeStyle=orthogonalEdgeStyle;rounded=0;orthogonalLoop=1;jettySize=auto;html=1;" edge="1" parent="WIyWlLk6GJQsqaUBKTNV-1" source="tj2GzW12nFk5Qo7bb9yd-67" target="tj2GzW12nFk5Qo7bb9yd-49">
          <mxGeometry relative="1" as="geometry" />
        </mxCell>
        <mxCell id="tj2GzW12nFk5Qo7bb9yd-71" value="YES" style="edgeLabel;html=1;align=center;verticalAlign=middle;resizable=0;points=[];" vertex="1" connectable="0" parent="tj2GzW12nFk5Qo7bb9yd-70">
          <mxGeometry x="0.0012" y="7" relative="1" as="geometry">
            <mxPoint y="-1" as="offset" />
          </mxGeometry>
        </mxCell>
        <mxCell id="tj2GzW12nFk5Qo7bb9yd-76" value="" style="edgeStyle=orthogonalEdgeStyle;rounded=0;orthogonalLoop=1;jettySize=auto;html=1;" edge="1" parent="WIyWlLk6GJQsqaUBKTNV-1" source="tj2GzW12nFk5Qo7bb9yd-67" target="tj2GzW12nFk5Qo7bb9yd-73">
          <mxGeometry relative="1" as="geometry" />
        </mxCell>
        <mxCell id="tj2GzW12nFk5Qo7bb9yd-77" value="NO" style="edgeLabel;html=1;align=center;verticalAlign=middle;resizable=0;points=[];" vertex="1" connectable="0" parent="tj2GzW12nFk5Qo7bb9yd-76">
          <mxGeometry x="-0.0261" y="3" relative="1" as="geometry">
            <mxPoint x="1" as="offset" />
          </mxGeometry>
        </mxCell>
        <mxCell id="tj2GzW12nFk5Qo7bb9yd-67" value="즉시 해지 가능한&lt;div&gt;&amp;nbsp;상품인가?&lt;br&gt;&lt;div style=&quot;color: rgb(255, 255, 255); background-color: rgb(0, 0, 0); font-family: Consolas, &amp;quot;Courier New&amp;quot;, monospace; font-size: 14px; line-height: 19px; white-space: pre;&quot;&gt;&lt;span style=&quot;color: #9cdcfe;&quot;&gt;DIRECT_CLOSE_PPM_YN&lt;/span&gt;&lt;/div&gt;&lt;/div&gt;" style="rhombus;whiteSpace=wrap;html=1;fillColor=#fff2cc;strokeColor=#d6b656;" vertex="1" parent="WIyWlLk6GJQsqaUBKTNV-1">
          <mxGeometry x="255" y="440" width="190" height="187.5" as="geometry" />
        </mxCell>
        <mxCell id="tj2GzW12nFk5Qo7bb9yd-78" style="edgeStyle=orthogonalEdgeStyle;rounded=0;orthogonalLoop=1;jettySize=auto;html=1;exitX=0;exitY=0.5;exitDx=0;exitDy=0;entryX=1;entryY=0.5;entryDx=0;entryDy=0;" edge="1" parent="WIyWlLk6GJQsqaUBKTNV-1" source="tj2GzW12nFk5Qo7bb9yd-73" target="tj2GzW12nFk5Qo7bb9yd-27">
          <mxGeometry relative="1" as="geometry" />
        </mxCell>
        <mxCell id="tj2GzW12nFk5Qo7bb9yd-79" value="NO" style="edgeLabel;html=1;align=center;verticalAlign=middle;resizable=0;points=[];" vertex="1" connectable="0" parent="tj2GzW12nFk5Qo7bb9yd-78">
          <mxGeometry x="-0.1031" y="5" relative="1" as="geometry">
            <mxPoint x="1" as="offset" />
          </mxGeometry>
        </mxCell>
        <mxCell id="tj2GzW12nFk5Qo7bb9yd-108" style="edgeStyle=orthogonalEdgeStyle;rounded=0;orthogonalLoop=1;jettySize=auto;html=1;exitX=0.5;exitY=1;exitDx=0;exitDy=0;" edge="1" parent="WIyWlLk6GJQsqaUBKTNV-1" source="tj2GzW12nFk5Qo7bb9yd-73" target="tj2GzW12nFk5Qo7bb9yd-30">
          <mxGeometry relative="1" as="geometry" />
        </mxCell>
        <mxCell id="tj2GzW12nFk5Qo7bb9yd-109" value="YES" style="edgeLabel;html=1;align=center;verticalAlign=middle;resizable=0;points=[];" vertex="1" connectable="0" parent="tj2GzW12nFk5Qo7bb9yd-108">
          <mxGeometry x="-0.2644" y="3" relative="1" as="geometry">
            <mxPoint y="1" as="offset" />
          </mxGeometry>
        </mxCell>
        <mxCell id="tj2GzW12nFk5Qo7bb9yd-73" value="OMNI팩 인가?&lt;br&gt;(38)&lt;br&gt;&lt;div style=&quot;color: rgb(255, 255, 255); background-color: rgb(0, 0, 0); font-family: Consolas, &amp;quot;Courier New&amp;quot;, monospace; font-size: 14px; line-height: 19px; white-space: pre;&quot;&gt;&lt;span style=&quot;color: #9cdcfe;&quot;&gt;NCMS_PROD_CODE&lt;/span&gt;&lt;/div&gt;" style="rhombus;whiteSpace=wrap;html=1;" vertex="1" parent="WIyWlLk6GJQsqaUBKTNV-1">
          <mxGeometry x="10" y="471.25" width="130" height="125" as="geometry" />
        </mxCell>
        <mxCell id="tj2GzW12nFk5Qo7bb9yd-87" style="edgeStyle=orthogonalEdgeStyle;rounded=0;orthogonalLoop=1;jettySize=auto;html=1;exitX=1;exitY=0.5;exitDx=0;exitDy=0;entryX=1;entryY=0.75;entryDx=0;entryDy=0;" edge="1" parent="WIyWlLk6GJQsqaUBKTNV-1" source="WIyWlLk6GJQsqaUBKTNV-7" target="WIyWlLk6GJQsqaUBKTNV-7">
          <mxGeometry relative="1" as="geometry" />
        </mxCell>
        <mxCell id="tj2GzW12nFk5Qo7bb9yd-103" style="edgeStyle=orthogonalEdgeStyle;rounded=0;orthogonalLoop=1;jettySize=auto;html=1;exitX=0.5;exitY=1;exitDx=0;exitDy=0;entryX=0.5;entryY=0;entryDx=0;entryDy=0;" edge="1" parent="WIyWlLk6GJQsqaUBKTNV-1" source="tj2GzW12nFk5Qo7bb9yd-98" target="tj2GzW12nFk5Qo7bb9yd-102">
          <mxGeometry relative="1" as="geometry" />
        </mxCell>
        <mxCell id="tj2GzW12nFk5Qo7bb9yd-104" value="NO" style="edgeLabel;html=1;align=center;verticalAlign=middle;resizable=0;points=[];" vertex="1" connectable="0" parent="tj2GzW12nFk5Qo7bb9yd-103">
          <mxGeometry x="-0.3079" y="-3" relative="1" as="geometry">
            <mxPoint as="offset" />
          </mxGeometry>
        </mxCell>
        <mxCell id="tj2GzW12nFk5Qo7bb9yd-110" style="edgeStyle=orthogonalEdgeStyle;rounded=0;orthogonalLoop=1;jettySize=auto;html=1;exitX=1;exitY=0.5;exitDx=0;exitDy=0;entryX=0;entryY=0.5;entryDx=0;entryDy=0;" edge="1" parent="WIyWlLk6GJQsqaUBKTNV-1" source="tj2GzW12nFk5Qo7bb9yd-98" target="tj2GzW12nFk5Qo7bb9yd-101">
          <mxGeometry relative="1" as="geometry" />
        </mxCell>
        <mxCell id="tj2GzW12nFk5Qo7bb9yd-111" value="YES" style="edgeLabel;html=1;align=center;verticalAlign=middle;resizable=0;points=[];" vertex="1" connectable="0" parent="tj2GzW12nFk5Qo7bb9yd-110">
          <mxGeometry x="-0.1011" relative="1" as="geometry">
            <mxPoint as="offset" />
          </mxGeometry>
        </mxCell>
        <mxCell id="tj2GzW12nFk5Qo7bb9yd-98" value="TYPE == &quot;CANCEL&quot; 인가?&lt;br&gt;&amp;nbsp;해지 팝업&amp;nbsp;" style="rhombus;whiteSpace=wrap;html=1;" vertex="1" parent="WIyWlLk6GJQsqaUBKTNV-1">
          <mxGeometry x="620" y="750" width="160" height="150" as="geometry" />
        </mxCell>
        <mxCell id="tj2GzW12nFk5Qo7bb9yd-114" style="edgeStyle=orthogonalEdgeStyle;rounded=0;orthogonalLoop=1;jettySize=auto;html=1;exitX=0.5;exitY=1;exitDx=0;exitDy=0;entryX=0.5;entryY=0;entryDx=0;entryDy=0;" edge="1" parent="WIyWlLk6GJQsqaUBKTNV-1" source="tj2GzW12nFk5Qo7bb9yd-101" target="tj2GzW12nFk5Qo7bb9yd-113">
          <mxGeometry relative="1" as="geometry" />
        </mxCell>
        <mxCell id="tj2GzW12nFk5Qo7bb9yd-115" value="NO" style="edgeLabel;html=1;align=center;verticalAlign=middle;resizable=0;points=[];" vertex="1" connectable="0" parent="tj2GzW12nFk5Qo7bb9yd-114">
          <mxGeometry x="-0.2457" y="2" relative="1" as="geometry">
            <mxPoint as="offset" />
          </mxGeometry>
        </mxCell>
        <mxCell id="tj2GzW12nFk5Qo7bb9yd-117" style="edgeStyle=orthogonalEdgeStyle;rounded=0;orthogonalLoop=1;jettySize=auto;html=1;exitX=1;exitY=0.5;exitDx=0;exitDy=0;entryX=0;entryY=0.5;entryDx=0;entryDy=0;" edge="1" parent="WIyWlLk6GJQsqaUBKTNV-1" source="tj2GzW12nFk5Qo7bb9yd-101" target="tj2GzW12nFk5Qo7bb9yd-116">
          <mxGeometry relative="1" as="geometry" />
        </mxCell>
        <mxCell id="tj2GzW12nFk5Qo7bb9yd-118" value="YES" style="edgeLabel;html=1;align=center;verticalAlign=middle;resizable=0;points=[];" vertex="1" connectable="0" parent="tj2GzW12nFk5Qo7bb9yd-117">
          <mxGeometry x="0.0339" relative="1" as="geometry">
            <mxPoint as="offset" />
          </mxGeometry>
        </mxCell>
        <mxCell id="tj2GzW12nFk5Qo7bb9yd-101" value="해당 pid가 있고,&lt;br&gt;plcc_cnt=0 인가?" style="rhombus;whiteSpace=wrap;html=1;" vertex="1" parent="WIyWlLk6GJQsqaUBKTNV-1">
          <mxGeometry x="910" y="750" width="190" height="150" as="geometry" />
        </mxCell>
        <mxCell id="tj2GzW12nFk5Qo7bb9yd-102" value="init()&lt;br&gt;액장변경핍업" style="rounded=1;whiteSpace=wrap;html=1;fillColor=#d5e8d4;strokeColor=#82b366;" vertex="1" parent="WIyWlLk6GJQsqaUBKTNV-1">
          <mxGeometry x="640" y="1020" width="120" height="60" as="geometry" />
        </mxCell>
        <mxCell id="tj2GzW12nFk5Qo7bb9yd-105" value="init()&lt;br&gt;해지팝업" style="rounded=1;whiteSpace=wrap;html=1;fillColor=#d5e8d4;strokeColor=#82b366;" vertex="1" parent="WIyWlLk6GJQsqaUBKTNV-1">
          <mxGeometry x="10" y="1020" width="120" height="60" as="geometry" />
        </mxCell>
        <mxCell id="tj2GzW12nFk5Qo7bb9yd-113" value="init()&lt;div&gt;해지핍업&lt;/div&gt;" style="rounded=1;whiteSpace=wrap;html=1;fillColor=#d5e8d4;strokeColor=#82b366;" vertex="1" parent="WIyWlLk6GJQsqaUBKTNV-1">
          <mxGeometry x="945" y="1020" width="120" height="60" as="geometry" />
        </mxCell>
        <mxCell id="tj2GzW12nFk5Qo7bb9yd-116" value="CouponCheck()" style="rounded=1;whiteSpace=wrap;html=1;fillColor=#f8cecc;strokeColor=#b85450;" vertex="1" parent="WIyWlLk6GJQsqaUBKTNV-1">
          <mxGeometry x="1260" y="795" width="120" height="60" as="geometry" />
        </mxCell>
        <mxCell id="tj2GzW12nFk5Qo7bb9yd-119" value="PPMpurchaseSerch()" style="rounded=1;whiteSpace=wrap;html=1;fillColor=#f8cecc;strokeColor=#b85450;" vertex="1" parent="WIyWlLk6GJQsqaUBKTNV-1">
          <mxGeometry x="302.5" y="1170" width="120" height="60" as="geometry" />
        </mxCell>
        <mxCell id="tj2GzW12nFk5Qo7bb9yd-120" style="edgeStyle=orthogonalEdgeStyle;rounded=0;orthogonalLoop=1;jettySize=auto;html=1;exitX=0.5;exitY=1;exitDx=0;exitDy=0;entryX=0.415;entryY=0.019;entryDx=0;entryDy=0;entryPerimeter=0;" edge="1" parent="WIyWlLk6GJQsqaUBKTNV-1" source="tj2GzW12nFk5Qo7bb9yd-52" target="tj2GzW12nFk5Qo7bb9yd-119">
          <mxGeometry relative="1" as="geometry" />
        </mxCell>
      </root>
    </mxGraphModel>
  </diagram>
</mxfile>
